<?xml version="1.0" encoding="utf-8"?>
<!-- Generator: Adobe Illustrator 16.0.0, SVG Export Plug-In . SVG Version: 6.00 Build 0)  -->
<!DOCTYPE svg PUBLIC "-//W3C//DTD SVG 1.1//EN" "http://www.w3.org/Graphics/SVG/1.1/DTD/svg11.dtd">
<svg version="1.1" id="Layer_1" xmlns="http://www.w3.org/2000/svg" xmlns:xlink="http://www.w3.org/1999/xlink" x="0px" y="0px"
	 width="960px" height="960px" viewBox="0 0 960 960" enable-background="new 0 0 960 960" xml:space="preserve">

<text transform="matrix(1 0 0 1 624.5 69.9248)" font-family="'ArialMT'" font-size="20">COTTAGES</text>
<rect x="433" y="480" width="21" height="480"/>
<rect x="564.5" y="101.5" fill="#FFFFFF" stroke="#000000" stroke-miterlimit="10" width="42" height="37"/>
<text transform="matrix(0.8675 0 0 1 579.3447 128.522)" font-family="'ArialMT'" font-size="23.4026">2</text>

<rect x="661.5" y="677.5" fill="#FFFFFF" stroke="#000000" stroke-miterlimit="10" width="280" height="267"/>
<text transform="matrix(1 0 0 1 769.334 811)"><tspan x="0" y="0" font-family="'ArialMT'" font-size="20">PARKING</tspan><tspan x="0" y="24" font-family="'ArialMT'" font-size="20">  AREA</tspan></text>
<rect x="557.5" y="480.5" fill="#FFFFFF" stroke="#000000" stroke-miterlimit="10" width="153" height="77"/>
<text transform="matrix(1 0 0 1 595.7852 503.1602)" font-family="'ArialMT'" font-size="20">TABLES</text>
<text transform="matrix(1 0 0 1 606 544.2559)" font-family="'ArialMT'" font-size="41.5568">50</text>

<rect x="777.5" y="480.5" fill="#FFFFFF" stroke="#000000" stroke-miterlimit="10" width="157" height="77"/>
<text transform="matrix(1 0 0 1 826.8379 505.1602)" font-family="'ArialMT'" font-size="20">CHAIRS</text>
<text transform="matrix(1 0 0 1 830.2793 545.2559)" font-family="'ArialMT'" font-size="41.5568">300</text>

<line fill="none" stroke="#000000" stroke-miterlimit="10" x1="526.5" y1="897" x2="526.5" y2="960"/>
<line fill="none" stroke="#000000" stroke-miterlimit="10" x1="467.5" y1="897" x2="467.5" y2="960"/>
<text transform="matrix(1 0 0 1 479.9995 941.5)" font-family="'ArialMT'" font-size="12">GATE</text>
<line fill="none" stroke="#000000" stroke-miterlimit="10" x1="13.5" y1="897" x2="13.5" y2="960"/>
<line fill="none" stroke="#000000" stroke-miterlimit="10" x1="71.5" y1="897" x2="71.5" y2="960"/>
<text transform="matrix(1 0 0 1 27.0972 941.5)" font-family="'ArialMT'" font-size="12">GATE</text>
<rect x="208.5" y="630.5" fill="#FFFFFF" stroke="#000000" stroke-miterlimit="10" width="89" height="94"/>

<rect x="313.5" y="630.5" fill="#FFFFFF" stroke="#000000" stroke-miterlimit="10" width="101" height="94"/>
<text transform="matrix(1 0 0 1 334 677.5)"><tspan x="0" y="0" font-family="'ArialMT'" font-size="12">SWIMMING </tspan><tspan x="0" y="14.4" font-family="'ArialMT'" font-size="12">    POOL</tspan></text>
<text transform="matrix(1 0 0 1 222.7632 680.5)" font-family="'ArialMT'" font-size="12">RESTO BAR</text>


<rect x="98.5" y="693.5" fill="#FFFFFF" stroke="#000000" stroke-miterlimit="10" width="77" height="47"/>
<text transform="matrix(1 0 0 1 113.2637 722)" font-family="'ArialMT'" font-size="12">ROOM 4</text>
<rect x="98.5" y="751.5" fill="#FFFFFF" stroke="#000000" stroke-miterlimit="10" width="77" height="47"/>
<rect x="98.5" y="810.5" fill="#FFFFFF" stroke="#000000" stroke-miterlimit="10" width="77" height="47"/>
<rect x="98.5" y="865.5" fill="#FFFFFF" stroke="#000000" stroke-miterlimit="10" width="77" height="47"/>
<text transform="matrix(1 0 0 1 114.2637 781)" font-family="'ArialMT'" font-size="12">ROOM 3</text>
<text transform="matrix(1 0 0 1 114.2637 837)" font-family="'ArialMT'" font-size="12">ROOM 2</text>
<text transform="matrix(1 0 0 1 113.2637 894.4736)" font-family="'ArialMT'" font-size="12">ROOM 1</text>

<rect x="613.5" y="101.5" fill="#FFFFFF" stroke="#000000" stroke-miterlimit="10" width="41" height="37"/>
<text transform="matrix(0.8675 0 0 1 628.0703 128.522)" font-family="'ArialMT'" font-size="23.4026">3</text>
<rect x="662.5" y="101.5" fill="#FFFFFF" stroke="#000000" stroke-miterlimit="10" width="41" height="37"/>
<text transform="matrix(0.8675 0 0 1 676.7969 128.522)" font-family="'ArialMT'" font-size="23.4026">4</text>
<rect x="710.5" y="101.5" fill="#FFFFFF" stroke="#000000" stroke-miterlimit="10" width="41" height="37"/>
<text transform="matrix(0.8675 0 0 1 724.71 128.522)" font-family="'ArialMT'" font-size="23.4026">5</text>
<rect x="757.5" y="101.5" fill="#FFFFFF" stroke="#000000" stroke-miterlimit="10" width="42" height="37"/>
<text transform="matrix(0.8675 0 0 1 772.624 128.522)" font-family="'ArialMT'" font-size="23.4026">6</text>
<rect x="806.5" y="101.5" fill="#FFFFFF" stroke="#000000" stroke-miterlimit="10" width="41" height="37"/>
<text transform="matrix(0.8675 0 0 1 820.5381 128.522)" font-family="'ArialMT'" font-size="23.4026">7</text>
<rect x="852.5" y="101.5" fill="#FFFFFF" stroke="#000000" stroke-miterlimit="10" width="42" height="37"/>
<text transform="matrix(0.8675 0 0 1 867.6396 128.522)" font-family="'ArialMT'" font-size="23.4026">8</text>
<rect x="899.5" y="101.5" fill="#FFFFFF" stroke="#000000" stroke-miterlimit="10" width="42" height="37"/>
<text transform="matrix(0.8675 0 0 1 914.7412 128.522)" font-family="'ArialMT'" font-size="23.4026">9</text>
<rect x="516.5" y="101.5" fill="#FFFFFF" stroke="#000000" stroke-miterlimit="10" width="40" height="37"/>
<text transform="matrix(0.8675 0 0 1 530.6191 128.522)" font-family="'ArialMT'" font-size="23.4026">1</text>
<rect x="517.5" y="156.5" fill="#FFFFFF" stroke="#000000" stroke-miterlimit="10" width="41" height="38"/>
<text transform="matrix(0.8675 0 0 1 525.7461 183.752)" font-family="'ArialMT'" font-size="23.4026">17</text>
<rect x="572.5" y="156.5" fill="#FFFFFF" stroke="#000000" stroke-miterlimit="10" width="41" height="38"/>
<text transform="matrix(0.8675 0 0 1 580.9688 183.752)" font-family="'ArialMT'" font-size="23.4026">16</text>
<rect x="629.5" y="156.5" fill="#FFFFFF" stroke="#000000" stroke-miterlimit="10" width="42" height="38"/>
<text transform="matrix(0.8675 0 0 1 637.8154 183.752)" font-family="'ArialMT'" font-size="23.4026">15</text>
<rect x="685.5" y="156.5" fill="#FFFFFF" stroke="#000000" stroke-miterlimit="10" width="42" height="38"/>
<text transform="matrix(0.8675 0 0 1 693.8105 183.752)" font-family="'ArialMT'" font-size="23.4026">14</text>
<rect x="741.5" y="156.5" fill="#FFFFFF" stroke="#000000" stroke-miterlimit="10" width="42" height="38"/>
<text transform="matrix(0.8675 0 0 1 751.5088 183.752)" font-family="'ArialMT'" font-size="23.4026">13</text>
<rect x="794.5" y="156.5" fill="#FFFFFF" stroke="#000000" stroke-miterlimit="10" width="42" height="38"/>
<text transform="matrix(0.8675 0 0 1 805.1074 183.752)" font-family="'ArialMT'" font-size="23.4026">12</text>
<rect x="847.5" y="156.5" fill="#FFFFFF" stroke="#000000" stroke-miterlimit="10" width="42" height="38"/>
<text transform="matrix(0.8675 0 0 1 856.2695 183.752)" font-family="'ArialMT'" font-size="23.4026">11</text>
<rect x="899.5" y="156.5" fill="#FFFFFF" stroke="#000000" stroke-miterlimit="10" width="42" height="38"/>
<text transform="matrix(0.8675 0 0 1 909.0566 183.752)" font-family="'ArialMT'" font-size="23.4026">10</text>
<rect x="567.5" y="268.5" fill="#FFFFFF" stroke="#000000" stroke-miterlimit="10" width="41" height="37"/>
<text transform="matrix(0.8675 0 0 1 576.9082 295.1479)" font-family="'ArialMT'" font-size="23.4026">28</text>
<rect x="615.5" y="268.5" fill="#FFFFFF" stroke="#000000" stroke-miterlimit="10" width="41" height="37"/>
<text transform="matrix(0.8675 0 0 1 625.6338 295.1479)" font-family="'ArialMT'" font-size="23.4026">27</text>
<rect x="664.5" y="268.5" fill="#FFFFFF" stroke="#000000" stroke-miterlimit="10" width="42" height="37"/>
<text transform="matrix(0.8675 0 0 1 674.3604 295.1479)" font-family="'ArialMT'" font-size="23.4026">26</text>
<rect x="517.5" y="268.5" fill="#FFFFFF" stroke="#000000" stroke-miterlimit="10" width="42" height="37"/>
<text transform="matrix(0.8675 0 0 1 528.1816 295.1479)" font-family="'ArialMT'" font-size="23.4026">29</text>
<rect x="517.5" y="211.5" fill="#FFFFFF" stroke="#000000" stroke-miterlimit="10" width="41" height="38"/>
<text transform="matrix(0.8675 0 0 1 525.7461 238.9819)" font-family="'ArialMT'" font-size="23.4026">18</text>
<rect x="572.5" y="211.5" fill="#FFFFFF" stroke="#000000" stroke-miterlimit="10" width="41" height="38"/>
<text transform="matrix(0.8675 0 0 1 580.9688 238.9819)" font-family="'ArialMT'" font-size="23.4026">19</text>
<rect x="629.5" y="211.5" fill="#FFFFFF" stroke="#000000" stroke-miterlimit="10" width="42" height="38"/>
<text transform="matrix(0.8675 0 0 1 637.8154 238.9819)" font-family="'ArialMT'" font-size="23.4026">20</text>
<rect x="685.5" y="211.5" fill="#FFFFFF" stroke="#000000" stroke-miterlimit="10" width="42" height="38"/>
<text transform="matrix(0.8675 0 0 1 693.8105 238.9819)" font-family="'ArialMT'" font-size="23.4026">21</text>
<rect x="741.5" y="211.5" fill="#FFFFFF" stroke="#000000" stroke-miterlimit="10" width="42" height="38"/>
<text transform="matrix(0.8675 0 0 1 751.5088 238.9819)" font-family="'ArialMT'" font-size="23.4026">22</text>
<rect x="794.5" y="211.5" fill="#FFFFFF" stroke="#000000" stroke-miterlimit="10" width="42" height="38"/>
<text transform="matrix(0.8675 0 0 1 804.2949 238.9819)" font-family="'ArialMT'" font-size="23.4026">23</text>
<rect x="847.5" y="211.5" fill="#FFFFFF" stroke="#000000" stroke-miterlimit="10" width="42" height="38"/>
<text transform="matrix(0.8675 0 0 1 855.458 238.9819)" font-family="'ArialMT'" font-size="23.4026">24</text>
<rect x="899.5" y="211.5" fill="#FFFFFF" stroke="#000000" stroke-miterlimit="10" width="42" height="38"/>
<text transform="matrix(0.8675 0 0 1 909.0566 238.9819)" font-family="'ArialMT'" font-size="23.4026">25</text>
<rect x="30.5" y="404.5" fill="#FFFFFF" stroke="#000000" stroke-miterlimit="10" width="48" height="34"/>
<text transform="matrix(1.1306 0 0 1 41.9258 428.71)" font-family="'ArialMT'" font-size="20.9677">31</text>
<rect x="92.5" y="404.5" fill="#FFFFFF" stroke="#000000" stroke-miterlimit="10" width="48" height="34"/>
<text transform="matrix(1.1306 0 0 1 102.6152 428.71)" font-family="'ArialMT'" font-size="20.9677">30</text>

<text transform="matrix(1 0 0 1 29.5908 374.8813)" font-family="'ArialMT'" font-size="20">COTTAGES</text>
<rect x="208.5" y="753.5" fill="#FFFFFF" stroke="#000000" stroke-miterlimit="10" width="204" height="175"/>
<text transform="matrix(1 0 0 1 267.8271 834)"><tspan x="0" y="0" font-family="'ArialMT'" font-size="20">FUNCTION</tspan><tspan x="0" y="24" font-family="'ArialMT'" font-size="20">HALL</tspan></text>
<rect x="69.5" y="103.5" fill="#FFFFFF" stroke="#000000" stroke-miterlimit="10" width="39" height="38"/>
<text transform="matrix(0.8035 0 0 1 82.0479 131.3696)" font-family="'ArialMT'" font-size="24.1369">2</text>
<rect x="114.5" y="103.5" fill="#FFFFFF" stroke="#000000" stroke-miterlimit="10" width="40" height="38"/>
<text transform="matrix(0.8035 0 0 1 128.5942 131.3696)" font-family="'ArialMT'" font-size="24.1369">3</text>
<rect x="161.5" y="103.5" fill="#FFFFFF" stroke="#000000" stroke-miterlimit="10" width="40" height="38"/>
<text transform="matrix(0.8035 0 0 1 175.1416 131.3696)" font-family="'ArialMT'" font-size="24.1369">4</text>
<rect x="206.5" y="103.5" fill="#FFFFFF" stroke="#000000" stroke-miterlimit="10" width="40" height="38"/>
<text transform="matrix(0.8035 0 0 1 220.9121 131.3696)" font-family="'ArialMT'" font-size="24.1369">5</text>
<rect x="252.5" y="103.5" fill="#FFFFFF" stroke="#000000" stroke-miterlimit="10" width="41" height="38"/>
<text transform="matrix(0.8035 0 0 1 266.6831 131.3696)" font-family="'ArialMT'" font-size="24.1369">6</text>
<rect x="298.5" y="103.5" fill="#FFFFFF" stroke="#000000" stroke-miterlimit="10" width="39" height="38"/>
<text transform="matrix(0.8035 0 0 1 312.4536 131.3696)" font-family="'ArialMT'" font-size="24.1369">7</text>
<rect x="343.5" y="103.5" fill="#FFFFFF" stroke="#000000" stroke-miterlimit="10" width="40" height="38"/>
<text transform="matrix(0.8035 0 0 1 357.4478 131.3696)" font-family="'ArialMT'" font-size="24.1369">8</text>
<rect x="388.5" y="103.5" fill="#FFFFFF" stroke="#000000" stroke-miterlimit="10" width="40" height="38"/>
<text transform="matrix(0.8035 0 0 1 402.4438 131.3696)" font-family="'ArialMT'" font-size="24.1369">9</text>
<rect x="21.5" y="103.5" fill="#FFFFFF" stroke="#000000" stroke-miterlimit="10" width="39" height="38"/>
<text transform="matrix(0.8035 0 0 1 35.5015 131.3696)" font-family="'ArialMT'" font-size="24.1369">1</text>
<rect x="23.5" y="160.5" fill="#FFFFFF" stroke="#000000" stroke-miterlimit="10" width="39" height="39"/>
<text transform="matrix(0.8035 0 0 1 30.8472 188.3335)" font-family="'ArialMT'" font-size="24.1369">17</text>
<rect x="75.5" y="160.5" fill="#FFFFFF" stroke="#000000" stroke-miterlimit="10" width="39" height="39"/>
<text transform="matrix(0.8035 0 0 1 83.6001 188.3335)" font-family="'ArialMT'" font-size="24.1369">16</text>
<rect x="129.5" y="160.5" fill="#FFFFFF" stroke="#000000" stroke-miterlimit="10" width="40" height="39"/>
<text transform="matrix(0.8035 0 0 1 137.9043 188.3335)" font-family="'ArialMT'" font-size="24.1369">15</text>
<rect x="182.5" y="160.5" fill="#FFFFFF" stroke="#000000" stroke-miterlimit="10" width="40" height="39"/>
<text transform="matrix(0.8035 0 0 1 191.394 188.3335)" font-family="'ArialMT'" font-size="24.1369">14</text>
<rect x="238.5" y="160.5" fill="#FFFFFF" stroke="#000000" stroke-miterlimit="10" width="37" height="39"/>
<text transform="matrix(0.8035 0 0 1 246.5132 188.3335)" font-family="'ArialMT'" font-size="24.1369">13</text>
<rect x="287.5" y="160.5" fill="#FFFFFF" stroke="#000000" stroke-miterlimit="10" width="40" height="39"/>
<text transform="matrix(0.8035 0 0 1 297.7144 188.3335)" font-family="'ArialMT'" font-size="24.1369">12</text>
<rect x="337.5" y="160.5" fill="#FFFFFF" stroke="#000000" stroke-miterlimit="10" width="39" height="39"/>
<text transform="matrix(0.8035 0 0 1 346.5884 188.3335)" font-family="'ArialMT'" font-size="24.1369">11</text>
<rect x="388.5" y="160.5" fill="#FFFFFF" stroke="#000000" stroke-miterlimit="10" width="40" height="39"/>
<text transform="matrix(0.8035 0 0 1 397.0132 188.3335)" font-family="'ArialMT'" font-size="24.1369">10</text>
<rect x="23.5" y="276.5" fill="#FFFFFF" stroke="#000000" stroke-miterlimit="10" width="39" height="38"/>
<text transform="matrix(0.8035 0 0 1 33.1738 303.2241)" font-family="'ArialMT'" font-size="24.1369">29</text>
<rect x="23.5" y="217.5" fill="#FFFFFF" stroke="#000000" stroke-miterlimit="10" width="39" height="38"/>
<text transform="matrix(0.8035 0 0 1 30.8472 245.2964)" font-family="'ArialMT'" font-size="24.1369">18</text>
<rect x="75.5" y="217.5" fill="#FFFFFF" stroke="#000000" stroke-miterlimit="10" width="39" height="38"/>
<text transform="matrix(0.8035 0 0 1 83.6001 245.2964)" font-family="'ArialMT'" font-size="24.1369">19</text>
<rect x="129.5" y="217.5" fill="#FFFFFF" stroke="#000000" stroke-miterlimit="10" width="40" height="38"/>
<text transform="matrix(0.8035 0 0 1 137.9043 245.2964)" font-family="'ArialMT'" font-size="24.1369">20</text>
<rect x="182.5" y="217.5" fill="#FFFFFF" stroke="#000000" stroke-miterlimit="10" width="40" height="38"/>
<text transform="matrix(0.8035 0 0 1 191.394 245.2964)" font-family="'ArialMT'" font-size="24.1369">21</text>
<rect x="238.5" y="217.5" fill="#FFFFFF" stroke="#000000" stroke-miterlimit="10" width="37" height="38"/>
<text transform="matrix(0.8035 0 0 1 246.5132 245.2964)" font-family="'ArialMT'" font-size="24.1369">22</text>
<rect x="287.5" y="217.5" fill="#FFFFFF" stroke="#000000" stroke-miterlimit="10" width="40" height="38"/>
<text transform="matrix(0.8035 0 0 1 296.938 245.2964)" font-family="'ArialMT'" font-size="24.1369">23</text>
<rect x="337.5" y="217.5" fill="#FFFFFF" stroke="#000000" stroke-miterlimit="10" width="39" height="38"/>
<text transform="matrix(0.8035 0 0 1 345.812 245.2964)" font-family="'ArialMT'" font-size="24.1369">24</text>
<rect x="388.5" y="217.5" fill="#FFFFFF" stroke="#000000" stroke-miterlimit="10" width="40" height="38"/>
<text transform="matrix(0.8035 0 0 1 397.0132 245.2964)" font-family="'ArialMT'" font-size="24.1369">25</text>
<text transform="matrix(1 0 0 1 165.2695 70.9248)" font-family="'ArialMT'" font-size="20">TENTS</text>
<rect x="544.5" y="749.5" fill="#FFFFFF" stroke="#000000" stroke-miterlimit="10" width="91" height="98"/>
<text transform="matrix(1 0 0 1 559 791)"><tspan x="0" y="0" font-family="'ArialMT'" font-size="13">CASHIER</tspan><tspan x="0" y="15.601" font-family="'ArialMT'" font-size="13">COUNTER</tspan></text>
</svg>
